<svg id="visual" viewBox="0 0 900 600" width="900" height="600" xmlns="http://www.w3.org/2000/svg" xmlns:xlink="http://www.w3.org/1999/xlink" version="1.1"><rect width="900" height="600" fill="#141B29"></rect><g><g transform="translate(377 122)"><path d="M87 -27.8C98.8 8.2 84.9 53 54.7 74.9C24.5 96.7 -22 95.5 -55.5 72.2C-89.1 48.8 -109.6 3.3 -98.1 -32.2C-86.7 -67.7 -43.4 -93.1 -2.9 -92.1C37.6 -91.2 75.1 -63.9 87 -27.8Z" stroke="#5AC994" fill="none" stroke-width="20"></path></g><g transform="translate(878 151)"><path d="M77.8 -24.1C87.5 4.6 72.9 42.4 47.2 60C21.4 77.5 -15.4 74.7 -38.6 57C-61.7 39.3 -71.1 6.5 -62.4 -20.8C-53.7 -48.2 -26.9 -70.3 3.6 -71.5C34 -72.6 68 -52.9 77.8 -24.1Z" stroke="#5AC994" fill="none" stroke-width="20"></path></g><g transform="translate(176 338)"><path d="M100.3 -33.3C112 3.4 91.1 49.9 56.3 74.5C21.5 99.1 -27.2 101.8 -59.7 78.9C-92.3 56 -108.7 7.7 -96.1 -30.3C-83.5 -68.3 -41.7 -95.9 1.3 -96.3C44.3 -96.7 88.6 -70 100.3 -33.3Z" stroke="#5AC994" fill="none" stroke-width="20"></path></g></g></svg>