<svg id="visual" viewBox="0 0 900 600" width="900" height="600" xmlns="http://www.w3.org/2000/svg" xmlns:xlink="http://www.w3.org/1999/xlink" version="1.1"><rect width="900" height="600" fill="#141B29"></rect><g><g transform="translate(727 166)"><path d="M88.7 -29.6C100.9 9 87.3 55.2 55.4 79.1C23.5 102.9 -26.7 104.3 -58.1 81.2C-89.6 58.1 -102.3 10.3 -89.5 -29C-76.7 -68.4 -38.3 -99.4 -0.1 -99.4C38.2 -99.3 76.4 -68.3 88.7 -29.6Z" stroke="#5AC994" fill="none" stroke-width="20"></path></g><g transform="translate(215 163)"><path d="M54 -17.7C61.5 5.6 53.3 33.8 34.1 48C14.9 62.2 -15.3 62.4 -37.6 47.3C-59.9 32.2 -74.4 1.7 -66.8 -21.7C-59.2 -45.1 -29.6 -61.3 -3.2 -60.2C23.2 -59.2 46.5 -40.9 54 -17.7Z" stroke="#5AC994" fill="none" stroke-width="20"></path></g><g transform="translate(804 508)"><path d="M69.8 -24.2C78.5 4 65.2 37.7 42.2 53.3C19.2 68.9 -13.6 66.4 -34.2 50.6C-54.8 34.8 -63.2 5.8 -55.4 -21.1C-47.7 -48 -23.9 -72.8 3.4 -73.9C30.6 -75 61.2 -52.4 69.8 -24.2Z" stroke="#5AC994" fill="none" stroke-width="20"></path></g></g></svg>