<svg id="visual" viewBox="0 0 900 600" width="900" height="600" xmlns="http://www.w3.org/2000/svg" xmlns:xlink="http://www.w3.org/1999/xlink" version="1.1"><rect x="0" y="0" width="900" height="600" fill="#5AC994"></rect><defs><linearGradient id="grad1_0" x1="33.3%" y1="0%" x2="100%" y2="100%"><stop offset="20%" stop-color="#141b29" stop-opacity="1"></stop><stop offset="80%" stop-color="#141b29" stop-opacity="1"></stop></linearGradient></defs><defs><linearGradient id="grad1_1" x1="33.3%" y1="0%" x2="100%" y2="100%"><stop offset="20%" stop-color="#141b29" stop-opacity="1"></stop><stop offset="80%" stop-color="#006e7f" stop-opacity="1"></stop></linearGradient></defs><defs><linearGradient id="grad1_2" x1="33.3%" y1="0%" x2="100%" y2="100%"><stop offset="20%" stop-color="#5ac994" stop-opacity="1"></stop><stop offset="80%" stop-color="#006e7f" stop-opacity="1"></stop></linearGradient></defs><defs><linearGradient id="grad2_0" x1="0%" y1="0%" x2="66.7%" y2="100%"><stop offset="20%" stop-color="#141b29" stop-opacity="1"></stop><stop offset="80%" stop-color="#141b29" stop-opacity="1"></stop></linearGradient></defs><defs><linearGradient id="grad2_1" x1="0%" y1="0%" x2="66.7%" y2="100%"><stop offset="20%" stop-color="#006e7f" stop-opacity="1"></stop><stop offset="80%" stop-color="#141b29" stop-opacity="1"></stop></linearGradient></defs><defs><linearGradient id="grad2_2" x1="0%" y1="0%" x2="66.7%" y2="100%"><stop offset="20%" stop-color="#006e7f" stop-opacity="1"></stop><stop offset="80%" stop-color="#5ac994" stop-opacity="1"></stop></linearGradient></defs><g transform="translate(900, 0)"><path d="M0 486.7C-75.7 458.5 -151.4 430.2 -227 393.2C-302.6 356.1 -378.3 310.4 -421.5 243.4C-464.8 176.4 -475.8 88.2 -486.7 0L0 0Z" fill="#009c93"></path><path d="M0 324.5C-50.5 305.7 -100.9 286.8 -151.3 262.1C-201.8 237.4 -252.2 206.9 -281 162.2C-309.9 117.6 -317.2 58.8 -324.5 0L0 0Z" fill="#0f4158"></path><path d="M0 162.2C-25.2 152.8 -50.5 143.4 -75.7 131.1C-100.9 118.7 -126.1 103.5 -140.5 81.1C-154.9 58.8 -158.6 29.4 -162.2 0L0 0Z" fill="#141b29"></path></g><g transform="translate(0, 600)"><path d="M0 -486.7C87.6 -475.5 175.2 -464.2 243.4 -421.5C311.5 -378.9 360.2 -305 397.5 -229.5C434.8 -154 460.8 -77 486.7 0L0 0Z" fill="#009c93"></path><path d="M0 -324.5C58.4 -317 116.8 -309.4 162.2 -281C207.7 -252.6 240.1 -203.3 265 -153C289.9 -102.7 307.2 -51.3 324.5 0L0 0Z" fill="#0f4158"></path><path d="M0 -162.2C29.2 -158.5 58.4 -154.7 81.1 -140.5C103.8 -126.3 120.1 -101.7 132.5 -76.5C144.9 -51.3 153.6 -25.7 162.2 0L0 0Z" fill="#141b29"></path></g></svg>