<svg id="visual" viewBox="0 0 960 300" width="960" height="300" xmlns="http://www.w3.org/2000/svg" xmlns:xlink="http://www.w3.org/1999/xlink" version="1.1"><rect x="0" y="0" width="960" height="300" fill="#141B29"></rect><path d="M0 168L32 162C64 156 128 144 192 143.8C256 143.7 320 155.3 384 160.5C448 165.7 512 164.3 576 166.2C640 168 704 173 768 173.5C832 174 896 170 928 168L960 166L960 301L928 301C896 301 832 301 768 301C704 301 640 301 576 301C512 301 448 301 384 301C320 301 256 301 192 301C128 301 64 301 32 301L0 301Z" fill="#124143"></path><path d="M0 203L32 199.7C64 196.3 128 189.7 192 192C256 194.3 320 205.7 384 208.7C448 211.7 512 206.3 576 203.8C640 201.3 704 201.7 768 206C832 210.3 896 218.7 928 222.8L960 227L960 301L928 301C896 301 832 301 768 301C704 301 640 301 576 301C512 301 448 301 384 301C320 301 256 301 192 301C128 301 64 301 32 301L0 301Z" fill="#559984"></path><path d="M0 240L32 244.7C64 249.3 128 258.7 192 259.3C256 260 320 252 384 243.5C448 235 512 226 576 228.8C640 231.7 704 246.3 768 254.5C832 262.7 896 264.3 928 265.2L960 266L960 301L928 301C896 301 832 301 768 301C704 301 640 301 576 301C512 301 448 301 384 301C320 301 256 301 192 301C128 301 64 301 32 301L0 301Z" fill="#c0f7b7"></path></svg>