<svg id="visual" viewBox="0 0 900 600" width="900" height="600" xmlns="http://www.w3.org/2000/svg" xmlns:xlink="http://www.w3.org/1999/xlink" version="1.1"><rect x="0" y="0" width="900" height="600" fill="#5AC994"></rect><path d="M386 600L351 533L491 467L270 400L325 333L442 267L340 200L357 133L316 67L394 0L900 0L900 67L900 133L900 200L900 267L900 333L900 400L900 467L900 533L900 600Z" fill="#5ac994"></path><path d="M480 600L405 533L458 467L483 400L489 333L423 267L397 200L330 133L505 67L410 0L900 0L900 67L900 133L900 200L900 267L900 333L900 400L900 467L900 533L900 600Z" fill="#37b797"></path><path d="M540 600L544 533L471 467L407 400L338 333L434 267L445 200L404 133L545 67L388 0L900 0L900 67L900 133L900 200L900 267L900 333L900 400L900 467L900 533L900 600Z" fill="#0da596"></path><path d="M597 600L515 533L487 467L413 400L447 333L408 267L599 200L566 133L527 67L412 0L900 0L900 67L900 133L900 200L900 267L900 333L900 400L900 467L900 533L900 600Z" fill="#009392"></path><path d="M632 600L463 533L598 467L553 400L509 333L446 267L536 200L504 133L642 67L438 0L900 0L900 67L900 133L900 200L900 267L900 333L900 400L900 467L900 533L900 600Z" fill="#00808b"></path><path d="M503 600L602 533L595 467L557 400L611 333L559 267L509 200L475 133L665 67L604 0L900 0L900 67L900 133L900 200L900 267L900 333L900 400L900 467L900 533L900 600Z" fill="#006e7f"></path><path d="M604 600L674 533L619 467L663 400L598 333L632 267L561 200L709 133L579 67L560 0L900 0L900 67L900 133L900 200L900 267L900 333L900 400L900 467L900 533L900 600Z" fill="#0d5c71"></path><path d="M665 600L637 533L655 467L679 400L726 333L744 267L752 200L638 133L684 67L625 0L900 0L900 67L900 133L900 200L900 267L900 333L900 400L900 467L900 533L900 600Z" fill="#164a60"></path><path d="M786 600L702 533L757 467L761 400L719 333L754 267L723 200L780 133L683 67L732 0L900 0L900 67L900 133L900 200L900 267L900 333L900 400L900 467L900 533L900 600Z" fill="#19394e"></path><path d="M755 600L833 533L764 467L757 400L821 333L815 267L777 200L827 133L802 67L757 0L900 0L900 67L900 133L900 200L900 267L900 333L900 400L900 467L900 533L900 600Z" fill="#182a3c"></path><path d="M869 600L837 533L798 467L791 400L824 333L791 267L861 200L866 133L801 67L867 0L900 0L900 67L900 133L900 200L900 267L900 333L900 400L900 467L900 533L900 600Z" fill="#141b29"></path></svg>