<svg xmlns="http://www.w3.org/2000/svg" width="375" viewBox="0 0 375 375" height="375" version="1.0"><defs><clipPath id="a"><path d="M 52 12.734375 L 166 12.734375 L 166 140 L 52 140 Z M 52 12.734375"/></clipPath><clipPath id="b"><path d="M 91 328 L 126 328 L 126 362.234375 L 91 362.234375 Z M 91 328"/></clipPath></defs><path fill="#5AC994" d="M 161.375 146.742188 C 169.386719 150.996094 184.203125 147.351562 193.953125 149.957031 C 198.042969 158.648438 196.9375 172.878906 196.886719 183.652344 C 196.710938 218.84375 191.050781 214.375 255.464844 214.363281 C 271.957031 214.355469 274.742188 208.546875 274.582031 192.199219 C 274.050781 137.105469 279.289062 137.855469 246.960938 137.777344 C 233.789062 137.742188 218.574219 139.324219 206.46875 135.777344 C 204.324219 125.875 206.992188 113.796875 204.214844 105.476562 C 198.953125 103.617188 168.746094 102.867188 163.914062 105.953125 C 158.160156 109.625 157.425781 140.375 161.375 146.742188 Z M 161.375 146.742188" fill-rule="evenodd"/><g clip-path="url(#a)"><path fill="#5AC994" d="M 97.523438 111.835938 C 98.726562 124.511719 94.949219 133.007812 99.625 137.242188 C 105.066406 141.734375 128.503906 139.695312 135.050781 136.019531 C 139.503906 129.722656 141.535156 104.0625 137.140625 99.597656 C 133.457031 95.21875 126.917969 97.730469 119.160156 97.054688 C 117.875 88.308594 120.339844 60.933594 124.230469 54.085938 C 134.460938 36.085938 169.75 66.34375 164.46875 12.890625 C 154.5625 12.324219 143.71875 14.449219 134.472656 16.402344 C 119.359375 19.597656 123.789062 22.148438 120.253906 35.199219 C 117.089844 46.871094 97.40625 44.773438 73.652344 53.109375 C 58.03125 58.589844 57.910156 79.761719 53.496094 97.394531 C 46.441406 125.59375 64.976562 109.300781 97.523438 111.835938 Z M 97.523438 111.835938" fill-rule="evenodd"/></g><path fill="#C0F7B7" d="M 319 147.058594 C 314.394531 151.3125 303.429688 146.96875 295.265625 150.242188 C 292.726562 156.507812 291.574219 177.871094 296.835938 183.136719 C 302.125 187.675781 320.113281 186.40625 328.171875 184.828125 C 331.066406 176.226562 328.953125 169.699219 329.621094 160.617188 C 339.859375 155.851562 371.617188 165.238281 374.355469 154.5625 C 376.503906 146.160156 372.953125 113.371094 368.664062 109.652344 C 364.691406 106.210938 332.839844 100.566406 325.8125 102.84375 C 318.203125 105.3125 320.894531 115.785156 321.441406 124.109375 C 322.179688 135.296875 324.171875 142.929688 319 147.058594 Z M 319 147.058594" fill-rule="evenodd"/><path fill="#C0F7B7" d="M 228.269531 21.761719 C 222.96875 18.628906 213.523438 19.75 206.125 19.871094 C 197.167969 20.019531 188.863281 18.476562 184.601562 24.53125 C 178.933594 32.199219 186.660156 47.191406 175.507812 51.339844 L 161.90625 53.214844 C 153.515625 53.636719 148.828125 52.644531 145.320312 58.582031 C 142.105469 62.765625 140.308594 84.199219 143.183594 89.921875 C 149.296875 93.207031 175.628906 91.832031 182.453125 88.386719 C 187.101562 81.804688 185.296875 67.378906 187.5 59.238281 C 195.214844 56.152344 198.132812 56.269531 208.765625 56.625 C 213.226562 57.027344 216.472656 57.566406 219.789062 59.253906 C 226.941406 85.988281 211.890625 117.394531 232.539062 121.140625 C 243.527344 123.132812 297.820312 124.609375 302.617188 118.585938 C 307.273438 112.726562 306.058594 60.132812 297.851562 52.886719 C 291.726562 47.46875 257.796875 47.796875 246.875 47.476562 C 223.460938 46.800781 232.703125 41.09375 230.273438 27.214844 L 228.898438 23.023438 C 228.78125 22.703125 228.53125 22.15625 228.273438 21.761719 Z M 228.269531 21.761719" fill-rule="evenodd"/><g clip-path="url(#b)"><path fill="#C0F7B7" d="M 95.152344 357.546875 C 101.597656 360.511719 116.789062 363.261719 125.679688 361.730469 C 126.761719 354.378906 124.765625 337.421875 122.9375 331.441406 C 115.769531 329.085938 101.355469 327.746094 92.214844 328.386719 C 90.734375 336.867188 93.25 349.671875 95.152344 357.542969 Z M 95.152344 357.546875" fill-rule="evenodd"/></g><path fill="#C0F7B7" d="M 340.269531 85.105469 L 337.886719 62.757812 C 330.878906 58.980469 319.988281 58.699219 311.507812 59.390625 C 310.367188 84.191406 313.839844 87.789062 340.269531 85.105469 Z M 340.269531 85.105469" fill-rule="evenodd"/><path fill="#C0F7B7" d="M 39.667969 202.363281 C 44.21875 210.6875 38.601562 225.714844 42.808594 234.8125 C 48.679688 238.957031 73.203125 240.148438 77.453125 235.296875 C 83.933594 229.460938 78.816406 206.871094 82.457031 198.042969 C 88.941406 197.597656 97.792969 196.328125 101.515625 199.925781 C 105.40625 204.417969 105.316406 252.5625 101.097656 258.503906 C 90.253906 268.964844 68.332031 248.710938 68.03125 271.964844 C 67.945312 278.4375 69.328125 300.710938 71.484375 304.800781 C 75.296875 312.035156 103.671875 313.527344 111.011719 309.855469 C 111.292969 309.46875 111.605469 308.351562 111.691406 308.585938 L 113.03125 292.507812 C 111.410156 264.570312 115.136719 275.558594 170.492188 275.179688 C 192.59375 275.027344 187.527344 260.25 187.386719 231.285156 C 187.296875 212.394531 192.121094 189.402344 172.058594 187.289062 C 156.375 185.640625 125.621094 192.199219 113.914062 185.664062 C 108.523438 176.484375 116.449219 161.835938 110.289062 155.355469 C 105.851562 151 78.566406 154.160156 75.695312 157.042969 C 68.964844 166.726562 77.632812 180.988281 68.492188 187.335938 C 63.660156 189.808594 56.054688 190.058594 51.28125 187.214844 L 48.941406 181.886719 C 46.941406 172.574219 52.351562 140.246094 51.59375 134.277344 C 50.199219 123.355469 40 128.066406 31.800781 130.117188 C 2.496094 137.457031 6.734375 133.609375 0.882812 184.378906 C -0.648438 197.652344 -1.808594 201.761719 12.027344 201.4375 C 20.757812 201.230469 32.324219 198.84375 39.667969 202.363281 Z M 39.667969 202.363281" fill-rule="evenodd"/></svg>